<svg width="907" height="796" viewBox="0 0 907 1001" fill="none" xmlns="http://www.w3.org/2000/svg">
<g filter="url(#filter0_d_242_2)">
<path fill-rule="evenodd" clip-rule="evenodd" d="M118.207 469.399C81.9673 469.399 63.8192 513.215 89.4454 538.839L223.729 673.113C242.483 691.865 267.917 702.399 294.437 702.399H365.13C391.65 702.399 417.084 712.934 435.838 731.686L596.877 892.713C615.631 911.465 641.065 922 667.585 922H1056.44C1128.97 922 1165.3 834.302 1114 783.015L1027.61 696.63C1008.2 677.22 1021.95 644.03 1049.4 644.03C1076.85 644.03 1090.6 610.841 1071.19 591.431L875.851 396.111C857.097 377.359 831.663 366.824 805.143 366.824H570.701C544.18 366.824 518.746 356.289 499.993 337.537L464.74 302.287C445.986 283.535 420.552 273 394.032 273H158.88C107.632 273 81.9673 334.963 118.207 371.199L146.968 399.959C172.595 425.583 154.447 469.399 118.207 469.399Z" fill="#2D314D"/>
</g>
<path fill-rule="evenodd" clip-rule="evenodd" d="M256.207 162.399C219.967 162.399 201.819 206.215 227.445 231.839L361.729 366.113C380.483 384.865 405.917 395.399 432.437 395.399H503.13C529.65 395.399 555.084 405.934 573.838 424.686L734.877 585.713C753.631 604.465 779.065 615 805.585 615H1194.44C1266.97 615 1303.3 527.302 1252 476.015L1165.61 389.63C1146.2 370.22 1159.95 337.03 1187.4 337.03C1214.85 337.03 1228.6 303.841 1209.19 284.431L1013.85 89.1105C995.097 70.3585 969.663 59.8239 943.143 59.8239H708.701C682.18 59.8239 656.746 49.2892 637.993 30.5372L602.74 -4.71337C583.986 -23.4654 558.552 -34 532.032 -34H296.88C245.632 -34 219.967 27.9626 256.207 64.1995L284.968 92.9588C310.595 118.583 292.447 162.399 256.207 162.399Z" fill="url(#paint0_linear_242_2)"/>
<defs>
<filter id="filter0_d_242_2" x="0.448975" y="198" width="1214.57" height="803" filterUnits="userSpaceOnUse" color-interpolation-filters="sRGB">
<feFlood flood-opacity="0" result="BackgroundImageFix"/>
<feColorMatrix in="SourceAlpha" type="matrix" values="0 0 0 0 0 0 0 0 0 0 0 0 0 0 0 0 0 0 127 0" result="hardAlpha"/>
<feOffset dy="2"/>
<feGaussianBlur stdDeviation="38.5"/>
<feColorMatrix type="matrix" values="0 0 0 0 0 0 0 0 0 0 0 0 0 0 0 0 0 0 0.0240111 0"/>
<feBlend mode="normal" in2="BackgroundImageFix" result="effect1_dropShadow_242_2"/>
<feBlend mode="normal" in="SourceGraphic" in2="effect1_dropShadow_242_2" result="shape"/>
</filter>
<linearGradient id="paint0_linear_242_2" x1="-455.913" y1="289.138" x2="76.8341" y2="1301.28" gradientUnits="userSpaceOnUse">
<stop stop-color="#33D35E"/>
<stop offset="1" stop-color="#2AB6D9"/>
</linearGradient>
</defs>
</svg>
